<svg width="250" height="250" viewBox="0 0 250 250" fill="none" xmlns="http://www.w3.org/2000/svg">
<g clip-path="url(#clip0_0_254)">
<path fill-rule="evenodd" clip-rule="evenodd" d="M15.625 125C15.625 154.008 27.1484 181.828 47.6602 202.34C68.172 222.852 95.9919 234.375 125 234.375C154.008 234.375 181.828 222.852 202.34 202.34C222.852 181.828 234.375 154.008 234.375 125C234.375 95.9919 222.852 68.172 202.34 47.6602C181.828 27.1484 154.008 15.625 125 15.625C95.9919 15.625 68.172 27.1484 47.6602 47.6602C27.1484 68.172 15.625 95.9919 15.625 125ZM250 125C250 158.152 236.83 189.946 213.388 213.388C189.946 236.83 158.152 250 125 250C91.8479 250 60.0537 236.83 36.6117 213.388C13.1696 189.946 0 158.152 0 125C0 91.8479 13.1696 60.0537 36.6117 36.6117C60.0537 13.1696 91.8479 0 125 0C158.152 0 189.946 13.1696 213.388 36.6117C236.83 60.0537 250 91.8479 250 125ZM132.812 70.3125C132.812 68.2405 131.989 66.2534 130.524 64.7882C129.059 63.3231 127.072 62.5 125 62.5C122.928 62.5 120.941 63.3231 119.476 64.7882C118.011 66.2534 117.188 68.2405 117.188 70.3125V160.828L83.6562 127.281C82.1893 125.814 80.1996 124.99 78.125 124.99C76.0504 124.99 74.0607 125.814 72.5938 127.281C71.1268 128.748 70.3026 130.738 70.3026 132.812C70.3026 134.887 71.1268 136.877 72.5938 138.344L119.469 185.219C120.194 185.946 121.057 186.524 122.006 186.917C122.955 187.311 123.972 187.514 125 187.514C126.028 187.514 127.045 187.311 127.994 186.917C128.943 186.524 129.806 185.946 130.531 185.219L177.406 138.344C178.873 136.877 179.697 134.887 179.697 132.812C179.697 130.738 178.873 128.748 177.406 127.281C175.939 125.814 173.95 124.99 171.875 124.99C169.8 124.99 167.811 125.814 166.344 127.281L132.812 160.828V70.3125Z" fill="white"/>
</g>
<defs>
<clipPath id="clip0_0_254">
<rect width="250" height="250" fill="white"/>
</clipPath>
</defs>
</svg>
