<svg width="250" height="250" viewBox="0 0 250 250" fill="none" xmlns="http://www.w3.org/2000/svg">
<path fill-rule="evenodd" clip-rule="evenodd" d="M234.375 125C234.375 95.9919 222.852 68.172 202.34 47.6602C181.828 27.1484 154.008 15.625 125 15.625C95.9919 15.625 68.172 27.1484 47.6602 47.6602C27.1484 68.172 15.625 95.9919 15.625 125C15.625 154.008 27.1484 181.828 47.6602 202.34C68.172 222.852 95.9919 234.375 125 234.375C154.008 234.375 181.828 222.852 202.34 202.34C222.852 181.828 234.375 154.008 234.375 125ZM0 125C0 91.8479 13.1696 60.0537 36.6116 36.6116C60.0537 13.1696 91.8479 0 125 0C158.152 0 189.946 13.1696 213.388 36.6116C236.83 60.0537 250 91.8479 250 125C250 158.152 236.83 189.946 213.388 213.388C189.946 236.83 158.152 250 125 250C91.8479 250 60.0537 236.83 36.6116 213.388C13.1696 189.946 0 158.152 0 125ZM117.188 179.688C117.188 181.76 118.011 183.747 119.476 185.212C120.941 186.677 122.928 187.5 125 187.5C127.072 187.5 129.059 186.677 130.524 185.212C131.989 183.747 132.812 181.76 132.812 179.688V89.1719L166.344 122.719C167.811 124.186 169.8 125.01 171.875 125.01C173.95 125.01 175.939 124.186 177.406 122.719C178.873 121.252 179.697 119.262 179.697 117.188C179.697 115.113 178.873 113.123 177.406 111.656L130.531 64.7812C129.806 64.0537 128.943 63.4765 127.994 63.0826C127.045 62.6888 126.028 62.486 125 62.486C123.972 62.486 122.955 62.6888 122.006 63.0826C121.057 63.4765 120.194 64.0537 119.469 64.7812L72.5938 111.656C71.1268 113.123 70.3026 115.113 70.3026 117.187C70.3026 119.262 71.1268 121.252 72.5938 122.719C74.0607 124.186 76.0504 125.01 78.125 125.01C80.1996 125.01 82.1893 124.186 83.6563 122.719L117.188 89.1719L117.188 179.688Z" fill="white"/>
</svg>
