<svg width="2547" height="541" viewBox="0 0 2547 541" fill="none" xmlns="http://www.w3.org/2000/svg">
<rect y="145" width="1016" height="42" fill="#874B31"/>
<rect x="1531" y="145" width="1016" height="42" fill="#874B31"/>
<rect x="1084.91" y="2" width="42" height="193" transform="rotate(32.5746 1084.91 2)" fill="#874B31"/>
<path d="M1435.07 35.2504C1430.62 28.269 1432.66 18.9941 1439.64 14.5344L1462.39 -0.000468254L1566.29 162.647L1530.9 185.257L1435.07 35.2504Z" fill="#874B31"/>
<path d="M1080 36.8672L1117.76 23.6608C1118.8 23.2961 1119.94 23.8457 1120.31 24.8883L1295.63 526.151L1282.42 530.773C1267.82 535.879 1251.85 528.185 1246.74 513.588L1080 36.8672Z" fill="#874B31"/>
<path d="M1431.85 23.4403C1434.04 17.1845 1440.88 13.8872 1447.14 16.0755L1475.45 25.981L1305.55 511.696C1300.08 527.335 1282.97 535.578 1267.33 530.108L1256 526.145L1431.85 23.4403Z" fill="#874B31"/>
<ellipse cx="1269" cy="145" rx="46" ry="42" fill="#9E7544"/>
</svg>
