<?xml version="1.0"?>
<svg xmlns="http://www.w3.org/2000/svg" xmlns:xlink="http://www.w3.org/1999/xlink" xmlns:svgjs="http://svgjs.com/svgjs" version="1.1" width="512" height="512" x="0" y="0" viewBox="0 0 32 32" style="enable-background:new 0 0 512 512" xml:space="preserve" class=""><g><g xmlns="http://www.w3.org/2000/svg" id="top-4" data-name="top"><path d="m9.76 15.56 6.24-6.24 6.24 6.24a2.76 2.76 0 0 0 1.93.8 2.74 2.74 0 0 0 1.94-4.67l-9.4-9.4a1 1 0 0 0 -1.42 0l-9.4 9.4a2.74 2.74 0 0 0 3.87 3.87z" fill="#ffffff" data-original="#000000" class=""/><path d="m16.71 15.93a1 1 0 0 0 -1.42 0l-9.4 9.4a2.74 2.74 0 1 0 3.87 3.87l6.24-6.2 6.24 6.24a2.76 2.76 0 0 0 1.93.8 2.74 2.74 0 0 0 1.94-4.67z" fill="#ffffff" data-original="#000000" class=""/></g></g></svg>
