<svg width="24" height="24" viewBox="0 0 24 24" fill="none" xmlns="http://www.w3.org/2000/svg">
<path d="M8.11967 14.7104L11.9997 10.8304L15.8797 14.7104C15.9723 14.803 16.0822 14.8764 16.2031 14.9265C16.3241 14.9766 16.4537 15.0024 16.5847 15.0024C16.7156 15.0024 16.8452 14.9766 16.9662 14.9265C17.0872 14.8764 17.1971 14.803 17.2897 14.7104C17.3823 14.6178 17.4557 14.5079 17.5058 14.387C17.5559 14.266 17.5817 14.1363 17.5817 14.0054C17.5817 13.8745 17.5559 13.7448 17.5058 13.6239C17.4557 13.5029 17.3823 13.393 17.2897 13.3004L12.6997 8.71041C12.6072 8.61771 12.4973 8.54416 12.3763 8.49398C12.2553 8.4438 12.1256 8.41797 11.9947 8.41797C11.8637 8.41797 11.734 8.4438 11.613 8.49398C11.4921 8.54416 11.3822 8.61771 11.2897 8.71041L6.69967 13.3004C6.60697 13.3929 6.53342 13.5028 6.48324 13.6238C6.43306 13.7448 6.40723 13.8744 6.40723 14.0054C6.40723 14.1364 6.43306 14.2661 6.48324 14.387C6.53342 14.508 6.60697 14.6179 6.69967 14.7104C7.08967 15.0904 7.72967 15.1004 8.11967 14.7104V14.7104Z" fill="white"/>
</svg>
